<svg aria-hidden="true" style="position: absolute; width: 0; height: 0; overflow: hidden;" version="1.1" xmlns="http://www.w3.org/2000/svg" xmlns:xlink="http://www.w3.org/1999/xlink">
<defs>
<symbol id="icon-call-svgrepo-com" viewBox="0 0 32 32">
<path fill="#c00407" style="fill: var(--color1, #c00407)" d="M24.438 30c-1.22 0-2.934-0.441-5.5-1.875-3.121-1.75-5.534-3.366-8.638-6.461-2.992-2.991-4.449-4.927-6.487-8.636-2.303-4.188-1.91-6.383-1.471-7.321 0.522-1.121 1.294-1.792 2.291-2.458 0.512-0.341 1.101-0.659 1.718-0.923l0.072-0.027c0.063-0.027 0.121-0.053 0.173-0.076 0.309-0.139 0.778-0.35 1.372-0.125 0.396 0.149 0.75 0.453 1.304 1 1.136 1.12 2.688 3.614 3.26 4.839 0.384 0.826 0.639 1.371 0.639 1.982 0 0.716-0.36 1.268-0.797 1.863-0.082 0.112-0.163 0.219-0.242 0.322-0.476 0.625-0.58 0.806-0.511 1.128 0.139 0.648 1.179 2.578 2.887 4.282s3.582 2.678 4.232 2.817c0.336 0.072 0.521-0.037 1.166-0.529 0.093-0.071 0.188-0.144 0.287-0.217 0.666-0.496 1.192-0.846 1.891-0.846h0.004c0.608 0 1.129 0.264 1.991 0.699 1.125 0.567 3.694 2.099 4.821 3.236 0.548 0.552 0.854 0.905 1.003 1.301 0.225 0.596 0.013 1.063-0.125 1.375-0.023 0.052-0.049 0.109-0.076 0.172-0.293 0.688-0.613 1.275-0.981 1.826l0.025-0.040c-0.664 0.994-1.337 1.763-2.461 2.286-0.527 0.255-1.147 0.405-1.802 0.405-0.016 0-0.032-0-0.048-0l0.002 0z"></path>
</symbol>
<symbol id="icon-capcoffee" viewBox="0 0 32 32">
<path fill="red"  d="M23.329 30.316h-18.512c-0.184 0-0.36-0.076-0.484-0.208l-4.079-4.319c-0.184-0.195-0.233-0.477-0.128-0.723 0.105-0.244 0.347-0.403 0.612-0.403h5.361c-2.601-3.897-4.035-8.283-4.265-13.056-0.009-0.181 0.056-0.36 0.181-0.492 0.127-0.133 0.301-0.207 0.483-0.207h21.811c0.067-0.029 0.451-0.031 0.741-0.013 0.107 0.007 0.215 0.013 0.324 0.013 1.813 0 3.461 0.648 4.637 1.824 1.237 1.233 1.917 2.879 1.917 4.633 0 1.751-0.681 3.395-1.917 4.632s-2.881 1.917-4.637 1.917c-0.911 0-1.809-0.191-2.636-0.552-0.256 0.437-0.528 0.872-0.813 1.301h5.483c0.265 0 0.507 0.159 0.612 0.403 0.105 0.245 0.056 0.528-0.128 0.723l-4.081 4.317c-0.124 0.132-0.299 0.208-0.481 0.208zM5.105 28.983h17.936l2.821-2.984h-5.219c-0.251 0-0.481-0.141-0.595-0.365-0.113-0.225-0.091-0.495 0.059-0.696 0.671-0.909 1.253-1.816 1.783-2.773 0.085-0.155 0.231-0.271 0.403-0.319 0.173-0.047 0.356-0.025 0.511 0.063 1.981 1.128 4.647 0.772 6.267-0.851 0.984-0.984 1.528-2.296 1.528-3.689 0-1.397-0.541-2.707-1.528-3.691-0.924-0.924-2.237-1.433-3.695-1.433-0.136 0-0.269-0.008-0.403-0.016-0.183-0.008-0.361-0.028-0.544 0.005l-21.221 0.009c0.351 4.671 1.933 8.937 4.712 12.692 0.149 0.203 0.172 0.472 0.059 0.696-0.113 0.225-0.344 0.367-0.595 0.367h-5.099l2.82 2.985zM25.375 21.128c-0.736 0-1.445-0.211-2.051-0.612-0.267-0.176-0.371-0.516-0.249-0.809 0.728-1.769 1.241-3.632 1.524-5.533 0.048-0.327 0.328-0.569 0.659-0.569h0.117c1.008 0 1.955 0.391 2.664 1.101 0.711 0.711 1.103 1.656 1.103 2.661 0 1.007-0.392 1.951-1.103 2.66-0.708 0.709-1.655 1.101-2.664 1.101zM24.534 19.645c0.86 0.319 1.901 0.101 2.563-0.561 0.46-0.459 0.712-1.068 0.712-1.717 0-0.648-0.252-1.259-0.712-1.719-0.353-0.353-0.796-0.584-1.277-0.671-0.276 1.596-0.708 3.161-1.285 4.668zM13.574 10.652c-0.157 0-0.313-0.056-0.439-0.165-2.733-2.389-1.493-3.976-0.673-5.028 0.735-0.941 1.139-1.46-0.004-2.643-0.201-0.209-0.244-0.525-0.108-0.78 0.137-0.256 0.417-0.395 0.709-0.34 0.188 0.033 4.603 0.889 4.393 3.804-0.195 2.633-3.356 4.931-3.489 5.028-0.117 0.083-0.253 0.124-0.389 0.124zM14.431 3.525c0.307 1.181-0.399 2.087-0.917 2.752-0.733 0.94-1.2 1.539 0.097 2.832 0.921-0.769 2.408-2.292 2.512-3.708 0.063-0.883-0.823-1.493-1.692-1.876zM19.426 10.652c-0.157 0-0.313-0.056-0.439-0.165-2.733-2.389-1.491-3.977-0.669-5.028 0.737-0.941 1.141-1.461 0-2.643-0.201-0.208-0.245-0.524-0.108-0.779 0.137-0.256 0.417-0.395 0.709-0.34 0.188 0.033 4.601 0.889 4.389 3.804-0.195 2.633-3.36 4.931-3.495 5.028-0.116 0.081-0.253 0.123-0.388 0.123zM20.289 3.525c0.308 1.183-0.4 2.087-0.92 2.753-0.735 0.94-1.203 1.537 0.095 2.831 0.921-0.768 2.411-2.292 2.515-3.708 0.065-0.883-0.819-1.493-1.689-1.876zM7.427 10.652c-0.157 0-0.313-0.056-0.439-0.165-2.732-2.389-1.492-3.979-0.671-5.029 0.735-0.941 1.14-1.461-0.003-2.643-0.203-0.208-0.245-0.524-0.108-0.779 0.137-0.256 0.417-0.395 0.709-0.34 0.188 0.033 4.603 0.889 4.389 3.805-0.191 2.632-3.356 4.929-3.491 5.027-0.116 0.083-0.253 0.124-0.388 0.124zM8.287 3.524c0.307 1.183-0.4 2.088-0.919 2.753-0.735 0.941-1.201 1.54 0.096 2.833 0.92-0.768 2.409-2.292 2.511-3.707 0.063-0.849-0.795-1.476-1.688-1.88z"></path>
<path fill="red"  d="M23.667 25.999h-17.833c-0.368 0-0.667-0.299-0.667-0.667s0.299-0.667 0.667-0.667h17.833c0.368 0 0.667 0.299 0.667 0.667s-0.299 0.667-0.667 0.667z"></path>
</symbol>
<symbol id="icon-cart-icon" viewBox="0 0 32 32">
<path fill="#c00407" style="fill: var(--color1, #c00407)" d="M15.987 0c-3.222 0.004-6.311 1.285-8.589 3.563s-3.56 5.367-3.563 8.589c0 8.809 8.753 16.869 11.436 19.13l0.745 0.627 0.757-0.611c0.463-0.374 11.368-9.28 11.368-19.146-0.004-3.222-1.285-6.311-3.564-8.589s-5.367-3.56-8.589-3.563v0zM22.916 12.063c0 1.353-0.401 2.675-1.152 3.8s-1.82 2.002-3.069 2.519c-1.25 0.518-2.625 0.653-3.952 0.389s-2.545-0.915-3.502-1.872-1.608-2.175-1.872-3.502c-0.264-1.327-0.128-2.702 0.389-3.952s1.394-2.318 2.519-3.069 2.447-1.152 3.8-1.152c1.813 0.002 3.551 0.724 4.833 2.006s2.003 3.020 2.006 4.833z"></path>
</symbol>
<symbol id="icon-coffe" viewBox="0 0 32 32">
<path fill="red"  d="M15.085 30.218c-0.025 0-0.050-0.002-0.075-0.004-5.638-0.666-9.89-6.785-9.89-14.232 0-7.104 3.871-13.046 9.204-14.128 0.244-0.050 0.495 0.047 0.642 0.247s0.166 0.468 0.047 0.687c-0.693 1.268-1.519 3.523-1.519 7.060 0 3.446 1.278 5.263 2.514 7.021 1.058 1.501 1.966 2.791 1.966 4.979 0 3.595-1.466 6.592-2.34 8.059-0.116 0.195-0.326 0.312-0.55 0.312zM13.277 3.5c-4 1.617-6.877 6.698-6.877 12.481 0 6.499 3.634 12.060 8.348 12.9 0.811-1.451 1.947-4.021 1.947-7.035 0-1.782-0.724-2.81-1.726-4.233-1.23-1.75-2.754-3.916-2.754-7.767 0-2.808 0.496-4.887 1.062-6.346z"></path>
<path fill="red"  d="M17.712 30.080c-0.194 0-0.38-0.088-0.503-0.244-0.153-0.194-0.18-0.458-0.071-0.679 0.82-1.659 1.796-4.274 1.796-7.31 0-2.492-1.037-3.964-2.136-5.523-1.154-1.64-2.344-3.332-2.344-6.477 0-5.323 1.926-7.497 2.312-7.879 0.144-0.143 0.348-0.21 0.549-0.177 5.452 0.858 9.564 6.959 9.564 14.191 0 6.988-3.797 12.911-9.028 14.084-0.046 0.011-0.093 0.016-0.14 0.016zM17.457 3.116c-0.514 0.653-1.723 2.626-1.723 6.73 0 2.74 0.977 4.129 2.109 5.738 1.112 1.579 2.371 3.365 2.371 6.262 0 2.556-0.636 4.828-1.333 6.548 3.963-1.673 6.718-6.637 6.718-12.414 0-6.452-3.477-11.902-8.143-12.864z"></path>
</symbol>
<symbol id="icon-coffeeMachine" viewBox="0 0 32 32">
<path d="M28.608 27.232h-0.832v-17.792c0-0.992-0.832-1.792-1.888-1.792h-3.68v-1.088c0-3.424-2.784-6.208-6.208-6.208s-6.208 2.784-6.208 6.208v1.088h-3.68c-1.024 0-1.888 0.8-1.888 1.792v17.792h-0.832c-1.248 0-2.272 1.024-2.272 2.272v1.056c0 0.608 0.48 1.088 1.088 1.088h27.616c0.608 0 1.088-0.48 1.088-1.088v-1.056c-0.032-1.248-1.056-2.272-2.304-2.272zM11.072 6.56c0-2.72 2.208-4.928 4.928-4.928s4.928 2.208 4.928 4.928v6.112c0 0.288-0.224 0.512-0.512 0.512h-8.832c-0.288 0-0.512-0.224-0.512-0.512v-6.112zM5.536 9.44c0-0.288 0.256-0.512 0.608-0.512h3.68v3.744c0 0.992 0.8 1.792 1.792 1.792h3.744v1.536c0 0.352 0.288 0.64 0.64 0.64s0.64-0.288 0.64-0.64v-1.536h3.776c0.992 0 1.792-0.8 1.792-1.792v-3.744h3.68c0.32 0 0.608 0.224 0.608 0.512v17.792h-20.96v-17.792zM29.6 30.368h-27.2v-0.832c0-0.544 0.448-0.992 0.992-0.992h25.216c0.544 0 0.992 0.448 0.992 0.992v0.832z"></path>
<path d="M23.744 19.52c-0.128-0.16-0.288-0.224-0.48-0.224h-2.368l0.064-0.576c0.032-0.288-0.064-0.576-0.256-0.768-0.192-0.224-0.48-0.32-0.736-0.32h-8.128c-0.288 0-0.544 0.128-0.736 0.32-0.192 0.224-0.288 0.48-0.256 0.768l0.48 5.6c0.128 1.312 1.216 2.336 2.528 2.336h4.064c1.28 0 2.304-0.896 2.496-2.144h2.080c0.32 0 0.576-0.224 0.64-0.512l0.736-3.936c0.032-0.192 0-0.384-0.128-0.544zM19.168 24.256c-0.064 0.64-0.608 1.152-1.248 1.152h-4.064c-0.672 0-1.184-0.48-1.248-1.152l-0.448-5.344h7.488l-0.48 5.344zM21.984 23.232h-1.44l0.224-2.656h1.728l-0.512 2.656z"></path>
</symbol>
<symbol id="icon-Group-11" viewBox="0 0 32 32">
<path fill="#c00407" style="fill: var(--color1, #c00407)" d="M32 16c0 8.837-7.163 16-16 16s-16-7.163-16-16c0-8.837 7.163-16 16-16s16 7.163 16 16z"></path>
<path fill="#fff" style="fill: var(--color3, #fff)" d="M14.204 23.285c-0.171 0.172-0.404 0.268-0.646 0.268s-0.475-0.096-0.646-0.268l-5.157-5.166c-0.535-0.536-0.535-1.405 0-1.94l0.646-0.647c0.535-0.536 1.402-0.536 1.937 0l3.22 3.225 8.7-8.714c0.535-0.536 1.403-0.536 1.937 0l0.646 0.647c0.535 0.536 0.535 1.405 0 1.94l-10.637 10.656z"></path>
</symbol>
<symbol id="icon-image" viewBox="0 0 32 32">
<path d="M15.085 30.218c-0.025 0-0.050-0.002-0.075-0.004-5.638-0.666-9.89-6.785-9.89-14.232 0-7.104 3.871-13.046 9.204-14.128 0.244-0.050 0.495 0.047 0.642 0.247s0.166 0.468 0.047 0.687c-0.693 1.268-1.519 3.523-1.519 7.060 0 3.446 1.278 5.263 2.514 7.021 1.058 1.501 1.966 2.791 1.966 4.979 0 3.595-1.466 6.592-2.34 8.059-0.116 0.195-0.326 0.312-0.55 0.312zM13.277 3.5c-4 1.617-6.877 6.698-6.877 12.481 0 6.499 3.634 12.060 8.348 12.9 0.811-1.451 1.947-4.021 1.947-7.035 0-1.782-0.724-2.81-1.726-4.233-1.23-1.75-2.754-3.916-2.754-7.767 0-2.808 0.496-4.887 1.062-6.346z"></path>
<path d="M17.712 30.080c-0.194 0-0.38-0.088-0.503-0.244-0.153-0.194-0.18-0.458-0.071-0.679 0.82-1.659 1.796-4.274 1.796-7.31 0-2.492-1.037-3.964-2.136-5.523-1.154-1.64-2.344-3.332-2.344-6.477 0-5.323 1.926-7.497 2.312-7.879 0.144-0.143 0.348-0.21 0.549-0.177 5.452 0.858 9.564 6.959 9.564 14.191 0 6.988-3.797 12.911-9.028 14.084-0.046 0.011-0.093 0.016-0.14 0.016zM17.457 3.116c-0.514 0.653-1.723 2.626-1.723 6.73 0 2.74 0.977 4.129 2.109 5.738 1.112 1.579 2.371 3.365 2.371 6.262 0 2.556-0.636 4.828-1.333 6.548 3.963-1.673 6.718-6.637 6.718-12.414 0-6.452-3.477-11.902-8.143-12.864z"></path>
</symbol>
</defs>
</svg>
